<?xml version="1.0" encoding="UTF-8" standalone="no"?>
<svg
   width="2414.0469pt"
   height="454.14453pt"
   viewBox="0 0 2414.0469 454.14453"
   version="1.1"
   id="svg8080"
   xmlns="http://www.w3.org/2000/svg"
   xmlns:svg="http://www.w3.org/2000/svg">
  <defs
     id="defs7750">
    <filter
       id="filter-remove-color"
       x="0"
       y="0"
       width="1"
       height="1">
      <feColorMatrix
         color-interpolation-filters="sRGB"
         values="0 0 0 0 1 0 0 0 0 1 0 0 0 0 1 0 0 0 1 0"
         id="feColorMatrix7638" />
    </filter>
  </defs>
  <path
     fill-rule="nonzero"
     fill="#231f20"
     fill-opacity="1"
     d="m 446.32031,178.6289 c 6.39454,1.49219 13.79688,1.97266 25.10157,1.97266 39.91406,0 64.51562,-20.1875 64.51562,-53.66016 0,-30.539059 -21.16406,-48.773429 -59.08984,-48.773429 -14.76563,0 -25.13672,0.99218 -30.52735,2.46484 z M 371.9336,27.917971 c 23.17187,-3.94141 55.67968,-6.8711 101.46875,-6.8711 46.33203,0 79.3125,8.85938 101.46484,26.57813 21.69531,16.78125 35.46094,44.33984 35.46094,76.851559 0,32.50781 -10.33594,60.56641 -30.55078,78.80078 -25.60547,23.64844 -63.50391,34.94531 -107.875,34.94531 -9.82032,0 -18.67969,-0.44531 -25.58204,-1.95703 V 355.48047 H 371.9336 Z m 0,0"
     id="path7754" />
  <path
     fill-rule="nonzero"
     fill="#231f20"
     fill-opacity="1"
     d="m 877.92969,278.17187 c 0,31.51563 0.98047,57.1211 1.96484,77.3086 h -64.98828 l -3.46094,-33.98438 h -1.5 c -9.36718,14.77344 -32.02343,39.40235 -75.33984,39.40235 -49.26562,0 -84.75,-30.54297 -84.75,-104.92188 V 114.62109 H 724.75 v 129.5625 c 0,34.94531 11.32813,56.12891 37.92578,56.12891 20.66797,0 32.98438,-14.27344 37.42188,-26.11719 1.98047,-4.40625 2.94922,-9.85547 2.94922,-16.23047 V 114.62109 h 74.88281 z m 0,0"
     id="path7756" />
  <path
     fill-rule="nonzero"
     fill="#231f20"
     fill-opacity="1"
     d="m 1013.0312,253.04687 c 0,4.91797 0.5078,9.33985 1.5,13.29688 4.9102,19.69531 22.168,35.46094 43.832,35.46094 31.9961,0 51.7227,-24.62891 51.7227,-68.00782 0,-37.41015 -16.7539,-66.97265 -51.7227,-66.97265 -20.2148,0 -38.9218,15.26953 -43.832,36.96875 -0.9922,4.43359 -1.5,8.85937 -1.5,13.77734 z M 938.16404,5.7734412 h 74.86716 V 143.20703 H 1014 c 14.3007,-20.6875 39.4179,-34 72.9218,-34 57.6289,0 99.4727,47.77734 98.9649,121.67969 0,86.66797 -54.6445,130.01172 -109.8125,130.01172 -28.0469,0 -55.6641,-10.35547 -72.3906,-38.88672 h -0.9961 l -2.92186,33.46875 h -63.5899 c 1.0196,-15.73047 1.9883,-44.80078 1.9883,-71.89453 z m 0,0"
     id="path7758" />
  <path
     fill-rule="nonzero"
     fill="#231f20"
     fill-opacity="1"
     d="m 1232.8554,5.7734412 h 74.8711 V 355.48047 h -74.8711 z m 0,0"
     id="path7760" />
  <path
     fill-rule="nonzero"
     fill="#231f20"
     fill-opacity="1"
     d="m 1368.3476,114.61719 h 74.8946 v 240.86328 h -74.8946 z m 77.3633,-66.992189 c 0,20.6875 -15.3008,37.44922 -40.3945,37.44922 -23.6328,0 -38.9297,-16.76172 -38.9297,-37.44922 0,-21.14844 15.7695,-37.39453 39.9258,-37.39453 24.0976,0 38.8867,16.21484 39.3984,37.39453"
     id="path7762" />
  <path
     fill-rule="nonzero"
     fill="#231f20"
     fill-opacity="1"
     d="m 1502.9101,290.49219 c 13.8203,8.32812 42.3828,17.72265 64.5,17.72265 22.6563,0 32.0508,-7.38672 32.0508,-19.71094 0,-12.80078 -7.4023,-18.71484 -34.9805,-28.10546 -50.25,-16.71094 -69.4375,-43.82422 -68.9804,-72.39454 0,-45.3125 38.4414,-79.28125 98.0273,-79.28125 28.082,0 52.7188,6.89063 67.4844,14.27735 l -12.7774,51.72265 c -10.8476,-5.92968 -32.0468,-13.79687 -52.2343,-13.79687 -18.2032,0 -28.5899,7.38672 -28.5899,19.19531 0,11.82422 9.3672,17.73828 38.9453,28.10547 45.793,15.73438 64.5,39.37109 64.9922,74.36328 0,45.30078 -34.9492,78.3086 -103.9375,78.3086 -31.4804,0 -59.5898,-7.3711 -77.789,-17.25782 z m 0,0"
     id="path7764" />
  <path
     fill-rule="nonzero"
     fill="#231f20"
     fill-opacity="1"
     d="m 1717.2851,5.7734412 h 74.875 V 143.66797 h 0.9961 c 7.8906,-10.79688 17.7031,-19.19532 29.5117,-25.125 11.336,-5.875 25.125,-9.33594 38.9297,-9.33594 47.7813,0 84.2266,32.98828 84.2266,105.91016 v 140.36328 h -74.8594 v -132.4961 c 0,-31.51562 -10.8164,-53.19531 -38.9219,-53.19531 -19.7031,0 -32,12.82031 -37.4218,26.59766 -2.0118,4.42187 -2.461,10.83203 -2.461,16.26562 v 142.82813 h -74.875 z m 0,0"
     id="path7766" />
  <path
     fill-rule="nonzero"
     fill="#231f20"
     fill-opacity="1"
     d="m 2151.8945,207.71484 c 0,-18.2539 -7.8789,-48.77734 -42.3945,-48.77734 -31.5352,0 -44.3164,29.0664 -46.2813,48.77734 z m -88.1758,51.24219 c 1.9258,31.02344 32.9961,45.76172 67.9531,45.76172 25.6368,0 46.3047,-3.42969 66.5039,-10.33594 l 9.8477,50.76563 c -24.6328,10.33203 -54.6914,15.26953 -87.2187,15.26953 -81.7344,0 -128.5196,-47.26953 -128.5196,-122.64063 0,-61.09765 37.9531,-128.57422 121.6719,-128.57422 77.8008,0 107.3711,60.58203 107.3711,120.19141 0,12.80078 -1.5078,24.14844 -2.4688,29.5625 z m 0,0"
     id="path7768" />
  <path
     fill-rule="nonzero"
     fill="#231f20"
     fill-opacity="1"
     d="m 2266.3086,193.93359 c 0,-35.45703 -0.4805,-58.60937 -1.9883,-79.3125 h 64.0117 l 3.0078,44.31641 h 1.9336 c 12.2813,-35.45703 41.375,-50.21485 64.9922,-50.21485 6.9219,0 10.3594,0.48438 15.7812,1.47657 v 70.40234 c -5.9101,-0.94141 -11.8086,-1.97266 -20.1875,-1.97266 -27.5937,0 -46.3242,14.8086 -51.2187,37.94922 -1.0195,4.89844 -1.5234,10.86328 -1.5234,16.74219 v 122.16016 h -74.8086 z m 0,0"
     id="path7770" />
  <rect
     style="fill:#f5f5f5;fill-opacity:1;stroke:none;stroke-width:2.37691;stroke-dasharray:none"
     id="rect9276"
     width="269.96869"
     height="289.37817"
     x="27.303017"
     y="32.061768" />
  <path
     fill-rule="nonzero"
     fill="#f69221"
     fill-opacity="1"
     d="m 274.375,214.67187 h -154.75 c 1.95313,30.9336 32.89844,45.71094 67.81641,45.71094 25.50781,0 46.15234,-3.44531 66.32422,-10.33594 l 9.75,50.58985 C 239,310.98828 209.01953,315.875 176.60156,315.875 c -81.535152,0 -128.187503,-47.14844 -128.187503,-122.31641 0,-60.92578 37.79297,-128.246089 121.332043,-128.246089 77.60937,0 107.08984,60.464839 107.08984,119.867189 0,12.80078 -1.46875,24.09375 -2.46094,29.49218 M 267.98828,1.2499999e-6 57.234377,0.01560125 C 25.621098,0.01560125 5.0000001e-7,25.636701 5.0000001e-7,57.257791 V 319.93748 C 5.0000001e-7,351.5742 25.621098,377.17576 57.234377,377.17576 H 108.3125 L 92.640627,454.14451 194.10938,377.17576 h 73.8789 c 31.59766,0 57.23438,-25.60156 57.23438,-57.23828 V 57.257811 C 325.22266,25.636721 299.58594,1.2499999e-6 267.98828,1.2499999e-6"
     id="path7772" />
  <path
     fill-rule="nonzero"
     fill="#f69221"
     fill-opacity="1"
     d="m 165.30469,114.96484 c -31.42969,0 -44.20703,28.96094 -46.17578,48.60156 h 88.41406 c 0,-18.19921 -7.84766,-48.60156 -42.23828,-48.60156"
     id="path7774" />
</svg>
